<svg width="40" height="40" viewBox="0 0 60 60" fill="none" xmlns="http://www.w3.org/2000/svg" aria-label="BIMSynergy Logo">
    <!-- Edificio central -->
    <rect x="18" y="15" width="12" height="30" rx="2" fill="#2563eb"/>
    <rect x="32" y="23" width="10" height="22" rx="2" fill="#1e3a8a"/>
    <!-- Ventanas (datos) -->
    <rect x="22" y="20" width="2" height="6" rx="1" fill="#fbbf24"/>
    <rect x="26" y="20" width="2" height="6" rx="1" fill="#fbbf24"/>
    <rect x="22" y="30" width="2" height="6" rx="1" fill="#fbbf24"/>
    <rect x="26" y="30" width="2" height="6" rx="1" fill="#fbbf24"/>
    <!-- Circuito de datos -->
    <polyline points="10,50 18,40 30,48 42,35 50,45" fill="none" stroke="#fbbf24" stroke-width="2" stroke-linecap="round"/>
    <circle cx="10" cy="50" r="2" fill="#fbbf24"/>
    <circle cx="18" cy="40" r="2" fill="#fbbf24"/>
    <circle cx="30" cy="48" r="2" fill="#fbbf24"/>
    <circle cx="42" cy="35" r="2" fill="#fbbf24"/>
    <circle cx="50" cy="45" r="2" fill="#fbbf24"/>
    <!-- Base -->
    <rect x="16" y="45" width="28" height="4" rx="2" fill="#2563eb"/>
    <ellipse cx="30" cy="53" rx="18" ry="3" fill="#e0e7ef"/>
  </svg>
